<svg xmlns="http://www.w3.org/2000/svg" viewBox="0 0 640 440"><defs><linearGradient id="bg" x1="0" y1="0" x2="1" y2="1"><stop offset="0" stop-color="#032a3c"/><stop offset="1" stop-color="#0a8fb0"/></linearGradient><linearGradient id="a" x1="0" y1="0" x2="1" y2="1"><stop offset="0" stop-color="#5eead4"/><stop offset="1" stop-color="#0a8fb0"/></linearGradient><radialGradient id="gl"><stop offset="0" stop-color="#5eead4" stop-opacity=".5"/><stop offset="1" stop-color="#5eead4" stop-opacity="0"/></radialGradient><filter id="s" x="-20%" y="-20%" width="140%" height="150%"><feDropShadow dx="0" dy="10" stdDeviation="10" flood-color="#000" flood-opacity=".3"/></filter><pattern id="p" width="22" height="22" patternUnits="userSpaceOnUse"><path d="M0 22L22 0" stroke="#fff" stroke-opacity=".08" stroke-width="2"/></pattern></defs><style>.f{animation:f 6s ease-in-out infinite}.f2{animation:f 8s ease-in-out infinite reverse}.sp{transform-box:fill-box;transform-origin:center;animation:s 24s linear infinite}@keyframes f{50%{transform:translateY(-10px)}}@keyframes s{to{transform:rotate(360deg)}}</style><rect width="640" height="440" fill="url(#bg)"/><rect width="640" height="440" fill="url(#p)"/><circle cx="320" cy="220" r="240" fill="url(#gl)"/><path d="M320 340C170 250 150 140 220 110c40-15 80 5 100 40 20-35 60-55 100-40 70 30 50 140-100 230z" fill="#fff" filter="url(#s)"/><polyline points="60,230 200,230 240,160 290,300 340,200 380,230 580,230" fill="none" stroke="#00b8f0" stroke-width="5" stroke-linecap="round" stroke-linejoin="round" /><g class="f2"><rect x="470" y="70" width="110" height="110" rx="26" fill="url(#a)" filter="url(#s)"/><rect x="515" y="95" width="20" height="60" rx="4" fill="#fff" /><rect x="495" y="115" width="60" height="20" rx="4" fill="#fff" /></g><g class="f"><rect x="60" y="70" width="140" height="52" rx="26" fill="#fff" filter="url(#s)"/><circle cx="88" cy="96" r="12" fill="#17b26a" /><rect x="112" y="86" width="64" height="8" rx="4" fill="#0b1f44" /><rect x="112" y="102" width="40" height="8" rx="4" fill="#9fb2d0" /></g></svg>