<svg xmlns="http://www.w3.org/2000/svg" viewBox="0 0 640 440"><defs><linearGradient id="bg" x1="0" y1="0" x2="1" y2="1"><stop offset="0" stop-color="#1b1050"/><stop offset="1" stop-color="#6a45e0"/></linearGradient><linearGradient id="a" x1="0" y1="0" x2="1" y2="1"><stop offset="0" stop-color="#c3a6ff"/><stop offset="1" stop-color="#6a45e0"/></linearGradient><radialGradient id="gl"><stop offset="0" stop-color="#c3a6ff" stop-opacity=".5"/><stop offset="1" stop-color="#c3a6ff" stop-opacity="0"/></radialGradient><filter id="s" x="-20%" y="-20%" width="140%" height="150%"><feDropShadow dx="0" dy="10" stdDeviation="10" flood-color="#000" flood-opacity=".3"/></filter><pattern id="p" width="44" height="44" patternUnits="userSpaceOnUse"><path d="M44 0H0V44" fill="none" stroke="#fff" stroke-opacity=".07"/></pattern></defs><style>.f{animation:f 6s ease-in-out infinite}.f2{animation:f 8s ease-in-out infinite reverse}.sp{transform-box:fill-box;transform-origin:center;animation:s 24s linear infinite}@keyframes f{50%{transform:translateY(-10px)}}@keyframes s{to{transform:rotate(360deg)}}</style><rect width="640" height="440" fill="url(#bg)"/><rect width="640" height="440" fill="url(#p)"/><circle cx="320" cy="220" r="240" fill="url(#gl)"/><circle cx="80" cy="80" r="2.5" fill="#fff" /><circle cx="200" cy="50" r="2.5" fill="#fff" /><circle cx="560" cy="90" r="2.5" fill="#fff" /><circle cx="520" cy="220" r="2.5" fill="#fff" /><circle cx="90" cy="260" r="2.5" fill="#fff" /><circle cx="600" cy="330" r="2.5" fill="#fff" /><circle cx="150" cy="380" r="2.5" fill="#fff" /><circle cx="520" cy="100" r="34" fill="#ffb36b" fill-opacity=".9"/><g class="f"><g transform="rotate(35 320 220)"><path d="M320 70c40 40 52 100 30 170h-60c-22-70-10-130 30-170z" fill="#fff" filter="url(#s)"/><circle cx="320" cy="150" r="20" fill="url(#a)" /><path d="M290 240l-36 40 36-10zM350 240l36 40-36-10z" fill="#c3a6ff" /><path d="M300 244h40l-20 70z" fill="#ffb36b" /></g></g><rect x="120" y="350" width="400" height="14" rx="7" fill="#fff" fill-opacity=".9"/><polyline points="80,320 170,290 230,300 300,250" fill="none" stroke="#c3a6ff" stroke-width="4" stroke-linecap="round" stroke-linejoin="round" stroke-dasharray="2 10"/><g class="f2"><rect x="60" y="90" width="150" height="56" rx="28" fill="#fff" filter="url(#s)"/><path d="M88 128l16-22 12 12 18-24" fill="none" stroke="#17b26a" stroke-width="5" stroke-linecap="round"/><rect x="138" y="108" width="50" height="8" rx="4" fill="#0b1f44" /></g></svg>