<svg xmlns="http://www.w3.org/2000/svg" viewBox="0 0 640 440"><defs><linearGradient id="bg" x1="0" y1="0" x2="1" y2="1"><stop offset="0" stop-color="#031236"/><stop offset="1" stop-color="#0a4fc4"/></linearGradient><linearGradient id="a" x1="0" y1="0" x2="1" y2="1"><stop offset="0" stop-color="#4dd8ff"/><stop offset="1" stop-color="#0a4fc4"/></linearGradient><radialGradient id="gl"><stop offset="0" stop-color="#4dd8ff" stop-opacity=".5"/><stop offset="1" stop-color="#4dd8ff" stop-opacity="0"/></radialGradient><filter id="s" x="-20%" y="-20%" width="140%" height="150%"><feDropShadow dx="0" dy="10" stdDeviation="10" flood-color="#000" flood-opacity=".3"/></filter><pattern id="p" width="44" height="44" patternUnits="userSpaceOnUse"><path d="M44 0H0V44" fill="none" stroke="#fff" stroke-opacity=".07"/></pattern></defs><style>.f{animation:f 6s ease-in-out infinite}.f2{animation:f 8s ease-in-out infinite reverse}.sp{transform-box:fill-box;transform-origin:center;animation:s 24s linear infinite}@keyframes f{50%{transform:translateY(-10px)}}@keyframes s{to{transform:rotate(360deg)}}</style><rect width="640" height="440" fill="url(#bg)"/><rect width="640" height="440" fill="url(#p)"/><circle cx="320" cy="220" r="240" fill="url(#gl)"/><rect x="220" y="120" width="200" height="200" rx="26" fill="#fff" filter="url(#s)"/><rect x="244" y="98" width="12" height="22" rx="3" fill="#fff" /><rect x="244" y="320" width="12" height="22" rx="3" fill="#fff" /><rect x="198" y="144" width="22" height="12" rx="3" fill="#fff" /><rect x="420" y="144" width="22" height="12" rx="3" fill="#fff" /><rect x="280" y="98" width="12" height="22" rx="3" fill="#fff" /><rect x="280" y="320" width="12" height="22" rx="3" fill="#fff" /><rect x="198" y="180" width="22" height="12" rx="3" fill="#fff" /><rect x="420" y="180" width="22" height="12" rx="3" fill="#fff" /><rect x="316" y="98" width="12" height="22" rx="3" fill="#fff" /><rect x="316" y="320" width="12" height="22" rx="3" fill="#fff" /><rect x="198" y="216" width="22" height="12" rx="3" fill="#fff" /><rect x="420" y="216" width="22" height="12" rx="3" fill="#fff" /><rect x="352" y="98" width="12" height="22" rx="3" fill="#fff" /><rect x="352" y="320" width="12" height="22" rx="3" fill="#fff" /><rect x="198" y="252" width="22" height="12" rx="3" fill="#fff" /><rect x="420" y="252" width="22" height="12" rx="3" fill="#fff" /><rect x="388" y="98" width="12" height="22" rx="3" fill="#fff" /><rect x="388" y="320" width="12" height="22" rx="3" fill="#fff" /><rect x="198" y="288" width="22" height="12" rx="3" fill="#fff" /><rect x="420" y="288" width="22" height="12" rx="3" fill="#fff" /><rect x="262" y="162" width="116" height="116" rx="20" fill="url(#a)" /><text x="320" y="242" font-family="Arial Black,Arial,sans-serif" font-size="48" font-weight="900" fill="#fff" text-anchor="middle">AI</text><polyline points="70,100 200,170" fill="none" stroke="#fff" stroke-width="1.5" stroke-linecap="round" stroke-linejoin="round" stroke-opacity=".4"/><circle cx="70" cy="100" r="12" fill="#fff" fill-opacity=".9"/><circle cx="70" cy="100" r="5" fill="url(#a)" /><polyline points="70,180 200,202" fill="none" stroke="#fff" stroke-width="1.5" stroke-linecap="round" stroke-linejoin="round" stroke-opacity=".4"/><circle cx="70" cy="180" r="12" fill="#fff" fill-opacity=".9"/><circle cx="70" cy="180" r="5" fill="url(#a)" /><polyline points="70,260 200,234" fill="none" stroke="#fff" stroke-width="1.5" stroke-linecap="round" stroke-linejoin="round" stroke-opacity=".4"/><circle cx="70" cy="260" r="12" fill="#fff" fill-opacity=".9"/><circle cx="70" cy="260" r="5" fill="url(#a)" /><polyline points="70,340 200,266" fill="none" stroke="#fff" stroke-width="1.5" stroke-linecap="round" stroke-linejoin="round" stroke-opacity=".4"/><circle cx="70" cy="340" r="12" fill="#fff" fill-opacity=".9"/><circle cx="70" cy="340" r="5" fill="url(#a)" /><polyline points="570,100 440,170" fill="none" stroke="#fff" stroke-width="1.5" stroke-linecap="round" stroke-linejoin="round" stroke-opacity=".4"/><circle cx="570" cy="100" r="12" fill="#fff" fill-opacity=".9"/><circle cx="570" cy="100" r="5" fill="url(#a)" /><polyline points="570,180 440,202" fill="none" stroke="#fff" stroke-width="1.5" stroke-linecap="round" stroke-linejoin="round" stroke-opacity=".4"/><circle cx="570" cy="180" r="12" fill="#fff" fill-opacity=".9"/><circle cx="570" cy="180" r="5" fill="url(#a)" /><polyline points="570,260 440,234" fill="none" stroke="#fff" stroke-width="1.5" stroke-linecap="round" stroke-linejoin="round" stroke-opacity=".4"/><circle cx="570" cy="260" r="12" fill="#fff" fill-opacity=".9"/><circle cx="570" cy="260" r="5" fill="url(#a)" /><polyline points="570,340 440,266" fill="none" stroke="#fff" stroke-width="1.5" stroke-linecap="round" stroke-linejoin="round" stroke-opacity=".4"/><circle cx="570" cy="340" r="12" fill="#fff" fill-opacity=".9"/><circle cx="570" cy="340" r="5" fill="url(#a)" /></svg>