<svg xmlns="http://www.w3.org/2000/svg" viewBox="0 0 640 440"><defs><linearGradient id="bg" x1="0" y1="0" x2="1" y2="1"><stop offset="0" stop-color="#1b1050"/><stop offset="1" stop-color="#6a45e0"/></linearGradient><linearGradient id="a" x1="0" y1="0" x2="1" y2="1"><stop offset="0" stop-color="#c3a6ff"/><stop offset="1" stop-color="#6a45e0"/></linearGradient><radialGradient id="gl"><stop offset="0" stop-color="#c3a6ff" stop-opacity=".5"/><stop offset="1" stop-color="#c3a6ff" stop-opacity="0"/></radialGradient><filter id="s" x="-20%" y="-20%" width="140%" height="150%"><feDropShadow dx="0" dy="10" stdDeviation="10" flood-color="#000" flood-opacity=".3"/></filter><pattern id="p" width="26" height="26" patternUnits="userSpaceOnUse"><circle cx="3" cy="3" r="1.6" fill="#fff" fill-opacity=".18"/></pattern></defs><style>.f{animation:f 6s ease-in-out infinite}.f2{animation:f 8s ease-in-out infinite reverse}.sp{transform-box:fill-box;transform-origin:center;animation:s 24s linear infinite}@keyframes f{50%{transform:translateY(-10px)}}@keyframes s{to{transform:rotate(360deg)}}</style><rect width="640" height="440" fill="url(#bg)"/><rect width="640" height="440" fill="url(#p)"/><circle cx="320" cy="220" r="240" fill="url(#gl)"/><rect x="70" y="70" width="380" height="270" rx="16" fill="#fff" filter="url(#s)"/><rect x="70" y="70" width="380" height="30" rx="16" fill="#eaf1fc" /><rect x="70" y="86" width="380" height="14" rx="0" fill="#eaf1fc" /><circle cx="88" cy="85" r="5" fill="#ff5f56" /><circle cx="104" cy="85" r="5" fill="#ffbd2e" /><circle cx="120" cy="85" r="5" fill="#27c93f" /><rect x="90" y="115" width="340" height="86" rx="12" fill="url(#a)" /><rect x="110" y="135" width="150" height="8" rx="4" fill="#fff" /><rect x="110" y="155" width="100" height="8" rx="4" fill="#cfe9ff" /><rect x="110" y="172" width="70" height="18" rx="9" fill="#fff" /><rect x="90" y="218" width="104" height="100" rx="10" fill="#f2f7fd" /><circle cx="110" cy="242" r="12" fill="url(#a)" /><rect x="100" y="266" width="70" height="8" rx="4" fill="#c9daf5" /><rect x="100" y="284" width="50" height="8" rx="4" fill="#c9daf5" /><rect x="208" y="218" width="104" height="100" rx="10" fill="#f2f7fd" /><circle cx="228" cy="242" r="12" fill="url(#a)" /><rect x="218" y="266" width="70" height="8" rx="4" fill="#c9daf5" /><rect x="218" y="284" width="50" height="8" rx="4" fill="#c9daf5" /><rect x="326" y="218" width="104" height="100" rx="10" fill="#f2f7fd" /><circle cx="346" cy="242" r="12" fill="url(#a)" /><rect x="336" y="266" width="70" height="8" rx="4" fill="#c9daf5" /><rect x="336" y="284" width="50" height="8" rx="4" fill="#c9daf5" /><g class="f2"><rect x="440" y="120" width="126" height="260" rx="26" fill="#0b1f44" filter="url(#s)"/><rect x="450" y="142" width="106" height="216" rx="14" fill="#fff" /><rect x="460" y="154" width="86" height="56" rx="8" fill="url(#a)" /><rect x="460" y="224" width="60" height="8" rx="4" fill="#c9daf5" /><rect x="460" y="242" width="80" height="8" rx="4" fill="#c9daf5" /><rect x="460" y="262" width="86" height="36" rx="8" fill="#f2f7fd" /><rect x="460" y="306" width="86" height="36" rx="8" fill="#f2f7fd" /></g></svg>